<?xml version="1.0" standalone="yes"?>
<svg width="100%" height="100%"
 xmlns = 'http://www.w3.org/2000/svg'>
  <defs>
    <font id="Font2">
      <font-face font-family="hexSpellVxExport" font-weight="normal" font-style="italic"
          units-per-em="1000" cap-height="600" x-height="400"
          ascent="700" descent="300" horiz-adv-x="500"
          alphabetic="0" mathematical="350" ideographic="400" hanging="500">
      </font-face>
      <missing-glyph><path d="M0,0h200v200h-200z"/></missing-glyph>
      
<glyph unicode="0" d="M261 667 L283 750 Q304 833 435 833 L539 833 Q565 833 574 825 L643 758 Q652 750 639 733 L522 583 C516 540 587 526 609 500 L639 442 Q652 417 639 367 Q609 250 335 250 Q304 250 300 267 L261 417 L304 417 L391 333 L452 333 Q478 333 491 358 L517 408 Q522 417 509 425 L391 500 L391 575 Q391 583 400 592 L470 658 Q478 667 470 675 L435 708 Q391 750 348 708 L304 667 Z
M761 500 Q761 833 978 833 Q1196 833 1196 500 Q1196 167 978 167 Q761 167 761 500 M1065 500 Q1065 750 978 750 Q891 750 891 500 Q891 250 978 250 Q1065 250 1065 500 " horiz-adv-x="1000" />
<glyph unicode="1" d="M261 667 L283 750 Q304 833 435 833 L539 833 Q565 833 574 825 L643 758 Q652 750 639 733 L522 583 C516 540 587 526 609 500 L639 442 Q652 417 639 367 Q609 250 335 250 Q304 250 300 267 L261 417 L304 417 L391 333 L452 333 Q478 333 491 358 L517 408 Q522 417 509 425 L391 500 L391 575 Q391 583 400 592 L470 658 Q478 667 470 675 L435 708 Q391 750 348 708 L304 667 Z
M848 667 L804 750 L978 833 L1109 833 L1109 333 L1239 333 L1239 250 L848 250 L848 333 L978 333 L978 667 Z" horiz-adv-x="1000" />
<glyph unicode="2" d="M261 667 L283 750 Q304 833 435 833 L539 833 Q565 833 574 825 L643 758 Q652 750 639 733 L522 583 C516 540 587 526 609 500 L639 442 Q652 417 639 367 Q609 250 335 250 Q304 250 300 267 L261 417 L304 417 L391 333 L452 333 Q478 333 491 358 L517 408 Q522 417 509 425 L391 500 L391 575 Q391 583 400 592 L470 658 Q478 667 470 675 L435 708 Q391 750 348 708 L304 667 Z
M848 667 L761 667 L783 750 Q804 833 935 875 Q1065 917 1152 833 Q1239 750 1065 542 L891 333 L1196 333 L1196 250 L761 250 L761 325 Q761 333 796 375 L935 542 Q1109 750 1043 792 Q978 833 913 750 Z" horiz-adv-x="1000" />
<glyph unicode="3" d="M261 667 L283 750 Q304 833 435 833 L539 833 Q565 833 574 825 L643 758 Q652 750 639 733 L522 583 C516 540 587 526 609 500 L639 442 Q652 417 639 367 Q609 250 335 250 Q304 250 300 267 L261 417 L304 417 L391 333 L452 333 Q478 333 491 358 L517 408 Q522 417 509 425 L391 500 L391 575 Q391 583 400 592 L470 658 Q478 667 470 675 L435 708 Q391 750 348 708 L304 667 Z
M761 667 L783 750 Q804 833 935 833 L1039 833 Q1065 833 1074 825 L1143 758 Q1152 750 1139 733 L1022 583 C1016 540 1087 526 1109 500 L1139 442 Q1152 417 1139 367 Q1109 250 835 250 Q804 250 800 267 L761 417 L804 417 L891 333 L952 333 Q978 333 991 358 L1017 408 Q1022 417 1009 425 L891 500 L891 575 Q891 583 900 592 L970 658 Q978 667 970 675 L935 708 Q891 750 848 708 L804 667 Z" horiz-adv-x="1000" />
<glyph unicode="4" d="M261 667 L283 750 Q304 833 435 833 L539 833 Q565 833 574 825 L643 758 Q652 750 639 733 L522 583 C516 540 587 526 609 500 L639 442 Q652 417 639 367 Q609 250 335 250 Q304 250 300 267 L261 417 L304 417 L391 333 L452 333 Q478 333 491 358 L517 408 Q522 417 509 425 L391 500 L391 575 Q391 583 400 592 L470 658 Q478 667 470 675 L435 708 Q391 750 348 708 L304 667 Z
M1109 250 L1109 417 L1239 417 L1239 500 L1109 500 L1109 833 L978 833 L717 500 L717 417 L978 417 L978 250 ZM978 750 L978 500 L804 500 Z" horiz-adv-x="1000" />
<glyph unicode="5" d="M261 667 L283 750 Q304 833 435 833 L539 833 Q565 833 574 825 L643 758 Q652 750 639 733 L522 583 C516 540 587 526 609 500 L639 442 Q652 417 639 367 Q609 250 335 250 Q304 250 300 267 L261 417 L304 417 L391 333 L452 333 Q478 333 491 358 L517 408 Q522 417 509 425 L391 500 L391 575 Q391 583 400 592 L470 658 Q478 667 470 675 L435 708 Q391 750 348 708 L304 667 Z
M1196 825 Q1196 833 1152 833 L761 833 L761 500 L978 500 L1065 458 Q1152 417 1065 375 L978 333 L761 333 L761 250 L1035 250 Q1065 250 1078 258 L1183 325 Q1196 333 1196 350 L1196 483 Q1196 500 1183 508 L1078 575 Q1065 583 1043 583 L848 583 L848 750 L1161 750 Q1196 750 1196 758 Z" horiz-adv-x="1000" />
<glyph unicode="6" d="M261 667 L283 750 Q304 833 435 833 L539 833 Q565 833 574 825 L643 758 Q652 750 639 733 L522 583 C516 540 587 526 609 500 L639 442 Q652 417 639 367 Q609 250 335 250 Q304 250 300 267 L261 417 L304 417 L391 333 L452 333 Q478 333 491 358 L517 408 Q522 417 509 425 L391 500 L391 575 Q391 583 400 592 L470 658 Q478 667 470 675 L435 708 Q391 750 348 708 L304 667 Z
M1148 825 Q1152 833 1126 833 L1022 833 Q891 833 826 750 Q761 667 739 583 L735 567 Q717 500 735 400 L739 375 Q761 250 935 250 Q1109 250 1109 425 Q1109 500 1043 542 Q978 583 913 583 L848 583 L891 667 Q935 750 1022 750 L1091 750 Q1109 750 1113 758 ZM1022 417 Q1022 333 935 333 Q848 333 826 417 Q804 500 913 500 Q1022 500 1022 417 " horiz-adv-x="1000" />
<glyph unicode="7" d="M261 667 L283 750 Q304 833 435 833 L539 833 Q565 833 574 825 L643 758 Q652 750 639 733 L522 583 C516 540 587 526 609 500 L639 442 Q652 417 639 367 Q609 250 335 250 Q304 250 300 267 L261 417 L304 417 L391 333 L452 333 Q478 333 491 358 L517 408 Q522 417 509 425 L391 500 L391 575 Q391 583 400 592 L470 658 Q478 667 470 675 L435 708 Q391 750 348 708 L304 667 Z
M867 250 Q875 250 879 258 L917 333 C1013 497 1074 592 1167 750 L1196 808 Q1208 833 1183 833 L1125 833 L833 833 L775 833 Q750 833 750 808 L750 775 Q750 750 775 750 L833 750 L1042 750 L917 542 Q792 333 792 292 L792 258 Q792 250 800 250 Z" horiz-adv-x="1000" />
<glyph unicode="8" d="M261 667 L283 750 Q304 833 435 833 L539 833 Q565 833 574 825 L643 758 Q652 750 639 733 L522 583 C516 540 587 526 609 500 L639 442 Q652 417 639 367 Q609 250 335 250 Q304 250 300 267 L261 417 L304 417 L391 333 L452 333 Q478 333 491 358 L517 408 Q522 417 509 425 L391 500 L391 575 Q391 583 400 592 L470 658 Q478 667 470 675 L435 708 Q391 750 348 708 L304 667 Z
M1091 808 Q1065 833 1013 833 L943 833 Q891 833 865 808 Q804 750 874 617 L891 583 L848 542 Q804 500 804 375 Q804 250 978 250 Q1152 250 1152 375 Q1152 500 1109 542 L1065 583 L1091 633 Q1152 750 1091 808 M978 750 Q1022 750 1022 708 Q1022 667 1000 625 Q978 583 957 625 Q935 667 935 708 Q935 750 978 750 M1065 417 Q1065 333 978 333 Q891 333 891 417 Q891 500 978 500 Q1065 500 1065 417 " horiz-adv-x="1000" />
<glyph unicode="9" d="M261 667 L283 750 Q304 833 435 833 L539 833 Q565 833 574 825 L643 758 Q652 750 639 733 L522 583 C516 540 587 526 609 500 L639 442 Q652 417 639 367 Q609 250 335 250 Q304 250 300 267 L261 417 L304 417 L391 333 L452 333 Q478 333 491 358 L517 408 Q522 417 509 425 L391 500 L391 575 Q391 583 400 592 L470 658 Q478 667 470 675 L435 708 Q391 750 348 708 L304 667 Z
M1152 750 Q1152 833 978 833 Q804 833 804 708 L804 608 Q804 583 809 575 L843 508 Q848 500 861 500 L965 500 Q978 500 987 508 L1065 583 L1065 433 Q1065 417 1057 400 Q978 250 804 250 Q804 250 804 208 L804 192 Q804 167 883 167 L1039 167 Q1065 167 1074 192 L1143 392 Q1152 417 1152 442 L1152 642 Q1152 667 1152 683 ZM978 750 Q1065 750 1043 667 Q1022 583 957 583 Q891 583 891 667 Q891 750 978 750 " horiz-adv-x="1000" />
<glyph unicode="a" d="M696 250 L696 667 L609 667 L609 583 L583 633 Q565 667 496 667 L461 667 Q391 667 357 633 L348 625 Q304 583 283 500 Q261 417 304 333 Q348 250 435 250 Q522 250 565 292 L609 333 L609 250 ZM370 458 Q391 583 478 583 L496 583 Q565 583 548 483 L539 433 Q522 333 452 333 L435 333 Q348 333 370 458 " horiz-adv-x="500" />
<glyph unicode="A" d="M696 250 L696 667 L609 667 L609 583 L583 633 Q565 667 496 667 L461 667 Q391 667 357 633 L348 625 Q304 583 283 500 Q261 417 304 333 Q348 250 435 250 Q522 250 565 292 L609 333 L609 250 ZM370 458 Q391 583 478 583 L496 583 Q565 583 548 483 L539 433 Q522 333 452 333 L435 333 Q348 333 370 458 " horiz-adv-x="500" />
<glyph unicode="b" d="M261 250 L261 917 L339 917 Q348 917 348 892 L348 667 L348 583 L370 625 Q391 667 500 667 Q609 667 630 583 Q652 500 630 417 Q609 333 587 292 Q565 250 522 250 L478 250 L435 250 Q391 250 370 292 L348 333 L348 275 Q348 250 322 250 ZM522 500 Q522 667 435 583 Q348 500 370 458 Q391 417 457 375 Q522 333 522 500 " horiz-adv-x="500" />
<glyph unicode="B" d="M261 250 L261 917 L339 917 Q348 917 348 892 L348 667 L348 583 L370 625 Q391 667 500 667 Q609 667 630 583 Q652 500 630 417 Q609 333 587 292 Q565 250 522 250 L478 250 L435 250 Q391 250 370 292 L348 333 L348 275 Q348 250 322 250 ZM522 500 Q522 667 435 583 Q348 500 370 458 Q391 417 457 375 Q522 333 522 500 " horiz-adv-x="500" />
<glyph unicode="c" d="M565 625 Q609 583 587 625 L565 667 L461 667 Q391 667 357 633 L348 625 Q304 583 283 500 Q261 417 304 333 Q348 250 435 250 Q522 250 565 333 Q609 417 565 375 L557 367 Q522 333 452 333 L435 333 Q348 333 370 458 Q391 583 457 625 L470 633 Q522 667 557 633 Z" horiz-adv-x="500" />
<glyph unicode="C" d="M565 625 Q609 583 587 625 L565 667 L461 667 Q391 667 357 633 L348 625 Q304 583 283 500 Q261 417 304 333 Q348 250 435 250 Q522 250 565 333 Q609 417 565 375 L557 367 Q522 333 452 333 L435 333 Q348 333 370 458 Q391 583 457 625 L470 633 Q522 667 557 633 Z" horiz-adv-x="500" />
<glyph unicode="d" d="M696 250 L696 850 Q696 917 687 917 L609 917 L609 583 L583 633 Q565 667 496 667 L461 667 Q391 667 357 633 L348 625 Q304 583 283 500 Q261 417 304 333 Q348 250 435 250 Q522 250 565 292 L609 333 L609 250 ZM370 458 Q391 583 478 583 L496 583 Q565 583 548 483 L539 433 Q522 333 452 333 L435 333 Q348 333 370 458 " horiz-adv-x="500" />
<glyph unicode="D" d="M696 250 L696 850 Q696 917 687 917 L609 917 L609 583 L583 633 Q565 667 496 667 L461 667 Q391 667 357 633 L348 625 Q304 583 283 500 Q261 417 304 333 Q348 250 435 250 Q522 250 565 292 L609 333 L609 250 ZM370 458 Q391 583 478 583 L496 583 Q565 583 548 483 L539 433 Q522 333 452 333 L435 333 Q348 333 370 458 " horiz-adv-x="500" />
<glyph unicode="e" d="M500 583 Q522 583 543 542 Q565 500 435 500 L304 500 C288 485 324 432 348 417 L435 417 Q522 417 565 458 Q609 500 587 583 Q565 667 478 667 L461 667 Q391 667 357 633 L348 625 Q304 583 283 500 Q261 417 304 333 Q348 250 435 250 Q522 250 565 333 L609 417 L557 367 Q522 333 452 333 L435 333 Q348 333 370 458 Q391 583 435 583 L478 583 Z" horiz-adv-x="500" />
<glyph unicode="E" d="M500 583 Q522 583 543 542 Q565 500 435 500 L304 500 C288 485 324 432 348 417 L435 417 Q522 417 565 458 Q609 500 587 583 Q565 667 478 667 L461 667 Q391 667 357 633 L348 625 Q304 583 283 500 Q261 417 304 333 Q348 250 435 250 Q522 250 565 333 L609 417 L557 367 Q522 333 452 333 L435 333 Q348 333 370 458 Q391 583 435 583 L478 583 Z" horiz-adv-x="500" />
<glyph unicode="f" d="M696 667 C712 667 747 719 739 750 C731 781 700 818 652 833 C604 849 510 880 478 833 L478 583 L391 583 C371 563 371 520 391 500 L478 500 L478 250 L557 250 Q565 250 565 275 L565 500 L652 500 C668 515 668 568 652 583 L565 583 L565 750 C581 781 628 765 652 750 Z" horiz-adv-x="500" />
<glyph unicode="F" d="M696 667 C712 667 747 719 739 750 C731 781 700 818 652 833 C604 849 510 880 478 833 L478 583 L391 583 C371 563 371 520 391 500 L478 500 L478 250 L557 250 Q565 250 565 275 L565 500 L652 500 C668 515 668 568 652 583 L565 583 L565 750 C581 781 628 765 652 750 Z" horiz-adv-x="500" />
<glyph unicode="g" d="M652 750 Q652 833 478 833 Q304 833 304 708 L304 608 Q304 583 309 575 L343 508 Q348 500 361 500 L465 500 Q478 500 487 508 L565 583 L565 433 Q565 417 557 400 Q478 250 304 250 Q304 250 304 208 L304 192 Q304 167 383 167 L539 167 Q565 167 574 192 L643 392 Q652 417 652 442 L652 642 Q652 667 652 683 ZM478 750 Q565 750 543 667 Q522 583 457 583 Q391 583 391 667 Q391 750 478 750 " horiz-adv-x="500" />
<glyph unicode="G" d="M652 750 Q652 833 478 833 Q304 833 304 708 L304 608 Q304 583 309 575 L343 508 Q348 500 361 500 L465 500 Q478 500 487 508 L565 583 L565 433 Q565 417 557 400 Q478 250 304 250 Q304 250 304 208 L304 192 Q304 167 383 167 L539 167 Q565 167 574 192 L643 392 Q652 417 652 442 L652 642 Q652 667 652 683 ZM478 750 Q565 750 543 667 Q522 583 457 583 Q391 583 391 667 Q391 750 478 750 " horiz-adv-x="500" />
<glyph unicode="h" d="M648 825 Q652 833 626 833 L522 833 Q391 833 326 750 Q261 667 239 583 L235 567 Q217 500 235 400 L239 375 Q261 250 435 250 Q609 250 609 425 Q609 500 543 542 Q478 583 413 583 L348 583 L391 667 Q435 750 522 750 L591 750 Q609 750 613 758 ZM522 417 Q522 333 435 333 Q348 333 326 417 Q304 500 413 500 Q522 500 522 417 " horiz-adv-x="500" />
<glyph unicode="H" d="M648 825 Q652 833 626 833 L522 833 Q391 833 326 750 Q261 667 239 583 L235 567 Q217 500 235 400 L239 375 Q261 250 435 250 Q609 250 609 425 Q609 500 543 542 Q478 583 413 583 L348 583 L391 667 Q435 750 522 750 L591 750 Q609 750 613 758 ZM522 417 Q522 333 435 333 Q348 333 326 417 Q304 500 413 500 Q522 500 522 417 " horiz-adv-x="500" />
<glyph unicode="i" d="M348 667 L304 750 L478 833 L609 833 L609 333 L739 333 L739 250 L348 250 L348 333 L478 333 L478 667 Z" horiz-adv-x="500" />
<glyph unicode="I" d="M348 667 L304 750 L478 833 L609 833 L609 333 L739 333 L739 250 L348 250 L348 333 L478 333 L478 667 Z" horiz-adv-x="500" />
<glyph unicode="j" d="M652 750 Q652 833 478 833 Q304 833 304 708 L304 608 Q304 583 309 575 L343 508 Q348 500 361 500 L465 500 Q478 500 487 508 L565 583 L565 433 Q565 417 557 400 Q478 250 304 250 Q304 250 304 208 L304 192 Q304 167 383 167 L539 167 Q565 167 574 192 L643 392 Q652 417 652 442 L652 642 Q652 667 652 683 ZM478 750 Q565 750 543 667 Q522 583 457 583 Q391 583 391 667 Q391 750 478 750 " horiz-adv-x="500" />
<glyph unicode="J" d="M652 750 Q652 833 478 833 Q304 833 304 708 L304 608 Q304 583 309 575 L343 508 Q348 500 361 500 L465 500 Q478 500 487 508 L565 583 L565 433 Q565 417 557 400 Q478 250 304 250 Q304 250 304 208 L304 192 Q304 167 383 167 L539 167 Q565 167 574 192 L643 392 Q652 417 652 442 L652 642 Q652 667 652 683 ZM478 750 Q565 750 543 667 Q522 583 457 583 Q391 583 391 667 Q391 750 478 750 " horiz-adv-x="500" />
<glyph unicode="k" d="M261 250 L261 917 L339 917 Q348 917 348 892 L348 667 L348 583 L370 625 Q391 667 500 667 Q609 667 630 583 Q652 500 630 417 Q609 333 587 292 Q565 250 522 250 L478 250 L435 250 Q391 250 370 292 L348 333 L348 275 Q348 250 322 250 ZM522 500 Q522 667 435 583 Q348 500 370 458 Q391 417 457 375 Q522 333 522 500 " horiz-adv-x="500" />
<glyph unicode="K" d="M261 250 L261 917 L339 917 Q348 917 348 892 L348 667 L348 583 L370 625 Q391 667 500 667 Q609 667 630 583 Q652 500 630 417 Q609 333 587 292 Q565 250 522 250 L478 250 L435 250 Q391 250 370 292 L348 333 L348 275 Q348 250 322 250 ZM522 500 Q522 667 435 583 Q348 500 370 458 Q391 417 457 375 Q522 333 522 500 " horiz-adv-x="500" />
<glyph unicode="l" d="M348 667 L304 750 L478 833 L609 833 L609 333 L739 333 L739 250 L348 250 L348 333 L478 333 L478 667 Z" horiz-adv-x="500" />
<glyph unicode="L" d="M348 667 L304 750 L478 833 L609 833 L609 333 L739 333 L739 250 L348 250 L348 333 L478 333 L478 667 Z" horiz-adv-x="500" />
<glyph unicode="m" d="M609 250 L609 417 L739 417 L739 500 L609 500 L609 833 L478 833 L217 500 L217 417 L478 417 L478 250 ZM478 750 L478 500 L304 500 Z
M1109 250 L1109 417 L1239 417 L1239 500 L1109 500 L1109 833 L978 833 L717 500 L717 417 L978 417 L978 250 ZM978 750 L978 500 L804 500 Z" horiz-adv-x="1000" />
<glyph unicode="M" d="M609 250 L609 417 L739 417 L739 500 L609 500 L609 833 L478 833 L217 500 L217 417 L478 417 L478 250 ZM478 750 L478 500 L304 500 Z
M1109 250 L1109 417 L1239 417 L1239 500 L1109 500 L1109 833 L978 833 L717 500 L717 417 L978 417 L978 250 ZM978 750 L978 500 L804 500 Z" horiz-adv-x="1000" />
<glyph unicode="n" d="M609 250 L609 417 L739 417 L739 500 L609 500 L609 833 L478 833 L217 500 L217 417 L478 417 L478 250 ZM478 750 L478 500 L304 500 Z" horiz-adv-x="500" />
<glyph unicode="N" d="M609 250 L609 417 L739 417 L739 500 L609 500 L609 833 L478 833 L217 500 L217 417 L478 417 L478 250 ZM478 750 L478 500 L304 500 Z" horiz-adv-x="500" />
<glyph unicode="o" d="M261 500 Q261 833 478 833 Q696 833 696 500 Q696 167 478 167 Q261 167 261 500 M565 500 Q565 750 478 750 Q391 750 391 500 Q391 250 478 250 Q565 250 565 500 " horiz-adv-x="500" />
<glyph unicode="O" d="M261 500 Q261 833 478 833 Q696 833 696 500 Q696 167 478 167 Q261 167 261 500 M565 500 Q565 750 478 750 Q391 750 391 500 Q391 250 478 250 Q565 250 565 500 " horiz-adv-x="500" />
<glyph unicode="p" d="M648 825 Q652 833 626 833 L522 833 Q391 833 326 750 Q261 667 239 583 L235 567 Q217 500 235 400 L239 375 Q261 250 435 250 Q609 250 609 425 Q609 500 543 542 Q478 583 413 583 L348 583 L391 667 Q435 750 522 750 L591 750 Q609 750 613 758 ZM522 417 Q522 333 435 333 Q348 333 326 417 Q304 500 413 500 Q522 500 522 417 " horiz-adv-x="500" />
<glyph unicode="P" d="M648 825 Q652 833 626 833 L522 833 Q391 833 326 750 Q261 667 239 583 L235 567 Q217 500 235 400 L239 375 Q261 250 435 250 Q609 250 609 425 Q609 500 543 542 Q478 583 413 583 L348 583 L391 667 Q435 750 522 750 L591 750 Q609 750 613 758 ZM522 417 Q522 333 435 333 Q348 333 326 417 Q304 500 413 500 Q522 500 522 417 " horiz-adv-x="500" />
<glyph unicode="q" d="M652 750 Q652 833 478 833 Q304 833 304 708 L304 608 Q304 583 309 575 L343 508 Q348 500 361 500 L465 500 Q478 500 487 508 L565 583 L565 433 Q565 417 557 400 Q478 250 304 250 Q304 250 304 208 L304 192 Q304 167 383 167 L539 167 Q565 167 574 192 L643 392 Q652 417 652 442 L652 642 Q652 667 652 683 ZM478 750 Q565 750 543 667 Q522 583 457 583 Q391 583 391 667 Q391 750 478 750 
M761 250 L761 917 L839 917 Q848 917 848 892 L848 667 L848 583 L870 625 Q891 667 1000 667 Q1109 667 1130 583 Q1152 500 1130 417 Q1109 333 1087 292 Q1065 250 1022 250 L978 250 L935 250 Q891 250 870 292 L848 333 L848 275 Q848 250 822 250 ZM1022 500 Q1022 667 935 583 Q848 500 870 458 Q891 417 957 375 Q1022 333 1022 500 " horiz-adv-x="1000" />
<glyph unicode="Q" d="M652 750 Q652 833 478 833 Q304 833 304 708 L304 608 Q304 583 309 575 L343 508 Q348 500 361 500 L465 500 Q478 500 487 508 L565 583 L565 433 Q565 417 557 400 Q478 250 304 250 Q304 250 304 208 L304 192 Q304 167 383 167 L539 167 Q565 167 574 192 L643 392 Q652 417 652 442 L652 642 Q652 667 652 683 ZM478 750 Q565 750 543 667 Q522 583 457 583 Q391 583 391 667 Q391 750 478 750 
M761 250 L761 917 L839 917 Q848 917 848 892 L848 667 L848 583 L870 625 Q891 667 1000 667 Q1109 667 1130 583 Q1152 500 1130 417 Q1109 333 1087 292 Q1065 250 1022 250 L978 250 L935 250 Q891 250 870 292 L848 333 L848 275 Q848 250 822 250 ZM1022 500 Q1022 667 935 583 Q848 500 870 458 Q891 417 957 375 Q1022 333 1022 500 " horiz-adv-x="1000" />
<glyph unicode="r" d="M348 667 L261 667 L283 750 Q304 833 435 875 Q565 917 652 833 Q739 750 565 542 L391 333 L696 333 L696 250 L261 250 L261 325 Q261 333 296 375 L435 542 Q609 750 543 792 Q478 833 413 750 Z" horiz-adv-x="500" />
<glyph unicode="R" d="M348 667 L261 667 L283 750 Q304 833 435 875 Q565 917 652 833 Q739 750 565 542 L391 333 L696 333 L696 250 L261 250 L261 325 Q261 333 296 375 L435 542 Q609 750 543 792 Q478 833 413 750 Z" horiz-adv-x="500" />
<glyph unicode="s" d="M696 825 Q696 833 652 833 L261 833 L261 500 L478 500 L565 458 Q652 417 565 375 L478 333 L261 333 L261 250 L535 250 Q565 250 578 258 L683 325 Q696 333 696 350 L696 483 Q696 500 683 508 L578 575 Q565 583 543 583 L348 583 L348 750 L661 750 Q696 750 696 758 Z" horiz-adv-x="500" />
<glyph unicode="S" d="M696 825 Q696 833 652 833 L261 833 L261 500 L478 500 L565 458 Q652 417 565 375 L478 333 L261 333 L261 250 L535 250 Q565 250 578 258 L683 325 Q696 333 696 350 L696 483 Q696 500 683 508 L578 575 Q565 583 543 583 L348 583 L348 750 L661 750 Q696 750 696 758 Z" horiz-adv-x="500" />
<glyph unicode="t" d="M367 250 Q375 250 379 258 L417 333 C513 497 574 592 667 750 L696 808 Q708 833 683 833 L625 833 L333 833 L275 833 Q250 833 250 808 L250 775 Q250 750 275 750 L333 750 L542 750 L417 542 Q292 333 292 292 L292 258 Q292 250 300 250 Z" horiz-adv-x="500" />
<glyph unicode="T" d="M367 250 Q375 250 379 258 L417 333 C513 497 574 592 667 750 L696 808 Q708 833 683 833 L625 833 L333 833 L275 833 Q250 833 250 808 L250 775 Q250 750 275 750 L333 750 L542 750 L417 542 Q292 333 292 292 L292 258 Q292 250 300 250 Z" horiz-adv-x="500" />
<glyph unicode="u" d="M565 625 Q609 583 587 625 L565 667 L461 667 Q391 667 357 633 L348 625 Q304 583 283 500 Q261 417 304 333 Q348 250 435 250 Q522 250 565 333 Q609 417 565 375 L557 367 Q522 333 452 333 L435 333 Q348 333 370 458 Q391 583 457 625 L470 633 Q522 667 557 633 Z" horiz-adv-x="500" />
<glyph unicode="U" d="M565 625 Q609 583 587 625 L565 667 L461 667 Q391 667 357 633 L348 625 Q304 583 283 500 Q261 417 304 333 Q348 250 435 250 Q522 250 565 333 Q609 417 565 375 L557 367 Q522 333 452 333 L435 333 Q348 333 370 458 Q391 583 457 625 L470 633 Q522 667 557 633 Z" horiz-adv-x="500" />
<glyph unicode="v" d="M565 625 Q609 583 587 625 L565 667 L461 667 Q391 667 357 633 L348 625 Q304 583 283 500 Q261 417 304 333 Q348 250 435 250 Q522 250 565 333 Q609 417 565 375 L557 367 Q522 333 452 333 L435 333 Q348 333 370 458 Q391 583 457 625 L470 633 Q522 667 557 633 Z" horiz-adv-x="500" />
<glyph unicode="V" d="M565 625 Q609 583 587 625 L565 667 L461 667 Q391 667 357 633 L348 625 Q304 583 283 500 Q261 417 304 333 Q348 250 435 250 Q522 250 565 333 Q609 417 565 375 L557 367 Q522 333 452 333 L435 333 Q348 333 370 458 Q391 583 457 625 L470 633 Q522 667 557 633 Z" horiz-adv-x="500" />
<glyph unicode="w" d="M565 625 Q609 583 587 625 L565 667 L461 667 Q391 667 357 633 L348 625 Q304 583 283 500 Q261 417 304 333 Q348 250 435 250 Q522 250 565 333 Q609 417 565 375 L557 367 Q522 333 452 333 L435 333 Q348 333 370 458 Q391 583 457 625 L470 633 Q522 667 557 633 Z
M1065 625 Q1109 583 1087 625 L1065 667 L961 667 Q891 667 857 633 L848 625 Q804 583 783 500 Q761 417 804 333 Q848 250 935 250 Q1022 250 1065 333 Q1109 417 1065 375 L1057 367 Q1022 333 952 333 L935 333 Q848 333 870 458 Q891 583 957 625 L970 633 Q1022 667 1057 633 Z" horiz-adv-x="1000" />
<glyph unicode="W" d="M565 625 Q609 583 587 625 L565 667 L461 667 Q391 667 357 633 L348 625 Q304 583 283 500 Q261 417 304 333 Q348 250 435 250 Q522 250 565 333 Q609 417 565 375 L557 367 Q522 333 452 333 L435 333 Q348 333 370 458 Q391 583 457 625 L470 633 Q522 667 557 633 Z
M1065 625 Q1109 583 1087 625 L1065 667 L961 667 Q891 667 857 633 L848 625 Q804 583 783 500 Q761 417 804 333 Q848 250 935 250 Q1022 250 1065 333 Q1109 417 1065 375 L1057 367 Q1022 333 952 333 L935 333 Q848 333 870 458 Q891 583 957 625 L970 633 Q1022 667 1057 633 Z" horiz-adv-x="1000" />
<glyph unicode="x" d="M261 667 L283 750 Q304 833 435 833 L539 833 Q565 833 574 825 L643 758 Q652 750 639 733 L522 583 C516 540 587 526 609 500 L639 442 Q652 417 639 367 Q609 250 335 250 Q304 250 300 267 L261 417 L304 417 L391 333 L452 333 Q478 333 491 358 L517 408 Q522 417 509 425 L391 500 L391 575 Q391 583 400 592 L470 658 Q478 667 470 675 L435 708 Q391 750 348 708 L304 667 Z" horiz-adv-x="500" />
<glyph unicode="X" d="M261 667 L283 750 Q304 833 435 833 L539 833 Q565 833 574 825 L643 758 Q652 750 639 733 L522 583 C516 540 587 526 609 500 L639 442 Q652 417 639 367 Q609 250 335 250 Q304 250 300 267 L261 417 L304 417 L391 333 L452 333 Q478 333 491 358 L517 408 Q522 417 509 425 L391 500 L391 575 Q391 583 400 592 L470 658 Q478 667 470 675 L435 708 Q391 750 348 708 L304 667 Z" horiz-adv-x="500" />
<glyph unicode="y" d="M652 750 Q652 833 478 833 Q304 833 304 708 L304 608 Q304 583 309 575 L343 508 Q348 500 361 500 L465 500 Q478 500 487 508 L565 583 L565 433 Q565 417 557 400 Q478 250 304 250 Q304 250 304 208 L304 192 Q304 167 383 167 L539 167 Q565 167 574 192 L643 392 Q652 417 652 442 L652 642 Q652 667 652 683 ZM478 750 Q565 750 543 667 Q522 583 457 583 Q391 583 391 667 Q391 750 478 750 " horiz-adv-x="500" />
<glyph unicode="Y" d="M652 750 Q652 833 478 833 Q304 833 304 708 L304 608 Q304 583 309 575 L343 508 Q348 500 361 500 L465 500 Q478 500 487 508 L565 583 L565 433 Q565 417 557 400 Q478 250 304 250 Q304 250 304 208 L304 192 Q304 167 383 167 L539 167 Q565 167 574 192 L643 392 Q652 417 652 442 L652 642 Q652 667 652 683 ZM478 750 Q565 750 543 667 Q522 583 457 583 Q391 583 391 667 Q391 750 478 750 " horiz-adv-x="500" />
<glyph unicode="z" d="M348 667 L261 667 L283 750 Q304 833 435 875 Q565 917 652 833 Q739 750 565 542 L391 333 L696 333 L696 250 L261 250 L261 325 Q261 333 296 375 L435 542 Q609 750 543 792 Q478 833 413 750 Z" horiz-adv-x="500" />
<glyph unicode="Z" d="M348 667 L261 667 L283 750 Q304 833 435 875 Q565 917 652 833 Q739 750 565 542 L391 333 L696 333 L696 250 L261 250 L261 325 Q261 333 296 375 L435 542 Q609 750 543 792 Q478 833 413 750 Z" horiz-adv-x="500" />
<glyph unicode="&#x20;" d="M261 500 Q261 833 478 833 Q696 833 696 500 Q696 167 478 167 Q261 167 261 500 M565 500 Q565 750 478 750 Q391 750 391 500 Q391 250 478 250 Q565 250 565 500 
M761 500 Q761 833 978 833 Q1196 833 1196 500 Q1196 167 978 167 Q761 167 761 500 M1065 500 Q1065 750 978 750 Q891 750 891 500 Q891 250 978 250 Q1065 250 1065 500 " horiz-adv-x="1000" />
<glyph unicode="&#x0a;" d="M261 500 Q261 833 478 833 Q696 833 696 500 Q696 167 478 167 Q261 167 261 500 M565 500 Q565 750 478 750 Q391 750 391 500 Q391 250 478 250 Q565 250 565 500 
M761 500 Q761 833 978 833 Q1196 833 1196 500 Q1196 167 978 167 Q761 167 761 500 M1065 500 Q1065 750 978 750 Q891 750 891 500 Q891 250 978 250 Q1065 250 1065 500 
M1261 500 Q1261 833 1478 833 Q1696 833 1696 500 Q1696 167 1478 167 Q1261 167 1261 500 M1565 500 Q1565 750 1478 750 Q1391 750 1391 500 Q1391 250 1478 250 Q1565 250 1565 500 
M1761 500 Q1761 833 1978 833 Q2196 833 2196 500 Q2196 167 1978 167 Q1761 167 1761 500 M2065 500 Q2065 750 1978 750 Q1891 750 1891 500 Q1891 250 1978 250 Q2065 250 2065 500 " horiz-adv-x="2000" />
<glyph unicode=":" d="M261 667 L283 750 Q304 833 435 833 L539 833 Q565 833 574 825 L643 758 Q652 750 639 733 L522 583 C516 540 587 526 609 500 L639 442 Q652 417 639 367 Q609 250 335 250 Q304 250 300 267 L261 417 L304 417 L391 333 L452 333 Q478 333 491 358 L517 408 Q522 417 509 425 L391 500 L391 575 Q391 583 400 592 L470 658 Q478 667 470 675 L435 708 Q391 750 348 708 L304 667 Z
M1196 250 L1196 667 L1109 667 L1109 583 L1083 633 Q1065 667 996 667 L961 667 Q891 667 857 633 L848 625 Q804 583 783 500 Q761 417 804 333 Q848 250 935 250 Q1022 250 1065 292 L1109 333 L1109 250 ZM870 458 Q891 583 978 583 L996 583 Q1065 583 1048 483 L1039 433 Q1022 333 952 333 L935 333 Q848 333 870 458 " horiz-adv-x="1000" />
<glyph unicode="=" d="M261 667 L283 750 Q304 833 435 833 L539 833 Q565 833 574 825 L643 758 Q652 750 639 733 L522 583 C516 540 587 526 609 500 L639 442 Q652 417 639 367 Q609 250 335 250 Q304 250 300 267 L261 417 L304 417 L391 333 L452 333 Q478 333 491 358 L517 408 Q522 417 509 425 L391 500 L391 575 Q391 583 400 592 L470 658 Q478 667 470 675 L435 708 Q391 750 348 708 L304 667 Z
M1196 250 L1196 850 Q1196 917 1187 917 L1109 917 L1109 583 L1083 633 Q1065 667 996 667 L961 667 Q891 667 857 633 L848 625 Q804 583 783 500 Q761 417 804 333 Q848 250 935 250 Q1022 250 1065 292 L1109 333 L1109 250 ZM870 458 Q891 583 978 583 L996 583 Q1065 583 1048 483 L1039 433 Q1022 333 952 333 L935 333 Q848 333 870 458 
M1261 667 L1283 750 Q1304 833 1435 833 L1539 833 Q1565 833 1574 825 L1643 758 Q1652 750 1639 733 L1522 583 C1516 540 1587 526 1609 500 L1639 442 Q1652 417 1639 367 Q1609 250 1335 250 Q1304 250 1300 267 L1261 417 L1304 417 L1391 333 L1452 333 Q1478 333 1491 358 L1517 408 Q1522 417 1509 425 L1391 500 L1391 575 Q1391 583 1400 592 L1470 658 Q1478 667 1470 675 L1435 708 Q1391 750 1348 708 L1304 667 Z
M2196 250 L2196 850 Q2196 917 2187 917 L2109 917 L2109 583 L2083 633 Q2065 667 1996 667 L1961 667 Q1891 667 1857 633 L1848 625 Q1804 583 1783 500 Q1761 417 1804 333 Q1848 250 1935 250 Q2022 250 2065 292 L2109 333 L2109 250 ZM1870 458 Q1891 583 1978 583 L1996 583 Q2065 583 2048 483 L2039 433 Q2022 333 1952 333 L1935 333 Q1848 333 1870 458 " horiz-adv-x="2000" />
<glyph unicode=";" d="M261 667 L283 750 Q304 833 435 833 L539 833 Q565 833 574 825 L643 758 Q652 750 639 733 L522 583 C516 540 587 526 609 500 L639 442 Q652 417 639 367 Q609 250 335 250 Q304 250 300 267 L261 417 L304 417 L391 333 L452 333 Q478 333 491 358 L517 408 Q522 417 509 425 L391 500 L391 575 Q391 583 400 592 L470 658 Q478 667 470 675 L435 708 Q391 750 348 708 L304 667 Z
M761 250 L761 917 L839 917 Q848 917 848 892 L848 667 L848 583 L870 625 Q891 667 1000 667 Q1109 667 1130 583 Q1152 500 1130 417 Q1109 333 1087 292 Q1065 250 1022 250 L978 250 L935 250 Q891 250 870 292 L848 333 L848 275 Q848 250 822 250 ZM1022 500 Q1022 667 935 583 Q848 500 870 458 Q891 417 957 375 Q1022 333 1022 500 " horiz-adv-x="1000" />
<glyph unicode="." d="M261 667 L283 750 Q304 833 435 833 L539 833 Q565 833 574 825 L643 758 Q652 750 639 733 L522 583 C516 540 587 526 609 500 L639 442 Q652 417 639 367 Q609 250 335 250 Q304 250 300 267 L261 417 L304 417 L391 333 L452 333 Q478 333 491 358 L517 408 Q522 417 509 425 L391 500 L391 575 Q391 583 400 592 L470 658 Q478 667 470 675 L435 708 Q391 750 348 708 L304 667 Z
M761 250 L761 917 L839 917 Q848 917 848 892 L848 667 L848 583 L870 625 Q891 667 1000 667 Q1109 667 1130 583 Q1152 500 1130 417 Q1109 333 1087 292 Q1065 250 1022 250 L978 250 L935 250 Q891 250 870 292 L848 333 L848 275 Q848 250 822 250 ZM1022 500 Q1022 667 935 583 Q848 500 870 458 Q891 417 957 375 Q1022 333 1022 500 " horiz-adv-x="1000" />
<glyph unicode="," d="M261 667 L283 750 Q304 833 435 833 L539 833 Q565 833 574 825 L643 758 Q652 750 639 733 L522 583 C516 540 587 526 609 500 L639 442 Q652 417 639 367 Q609 250 335 250 Q304 250 300 267 L261 417 L304 417 L391 333 L452 333 Q478 333 491 358 L517 408 Q522 417 509 425 L391 500 L391 575 Q391 583 400 592 L470 658 Q478 667 470 675 L435 708 Q391 750 348 708 L304 667 Z
M761 250 L761 917 L839 917 Q848 917 848 892 L848 667 L848 583 L870 625 Q891 667 1000 667 Q1109 667 1130 583 Q1152 500 1130 417 Q1109 333 1087 292 Q1065 250 1022 250 L978 250 L935 250 Q891 250 870 292 L848 333 L848 275 Q848 250 822 250 ZM1022 500 Q1022 667 935 583 Q848 500 870 458 Q891 417 957 375 Q1022 333 1022 500 " horiz-adv-x="1000" />
<glyph unicode="!" d="M261 667 L283 750 Q304 833 435 833 L539 833 Q565 833 574 825 L643 758 Q652 750 639 733 L522 583 C516 540 587 526 609 500 L639 442 Q652 417 639 367 Q609 250 335 250 Q304 250 300 267 L261 417 L304 417 L391 333 L452 333 Q478 333 491 358 L517 408 Q522 417 509 425 L391 500 L391 575 Q391 583 400 592 L470 658 Q478 667 470 675 L435 708 Q391 750 348 708 L304 667 Z
M1000 583 Q1022 583 1043 542 Q1065 500 935 500 L804 500 C788 485 824 432 848 417 L935 417 Q1022 417 1065 458 Q1109 500 1087 583 Q1065 667 978 667 L961 667 Q891 667 857 633 L848 625 Q804 583 783 500 Q761 417 804 333 Q848 250 935 250 Q1022 250 1065 333 L1109 417 L1057 367 Q1022 333 952 333 L935 333 Q848 333 870 458 Q891 583 935 583 L978 583 Z" horiz-adv-x="1000" />
<glyph unicode="?" d="M261 667 L283 750 Q304 833 435 833 L539 833 Q565 833 574 825 L643 758 Q652 750 639 733 L522 583 C516 540 587 526 609 500 L639 442 Q652 417 639 367 Q609 250 335 250 Q304 250 300 267 L261 417 L304 417 L391 333 L452 333 Q478 333 491 358 L517 408 Q522 417 509 425 L391 500 L391 575 Q391 583 400 592 L470 658 Q478 667 470 675 L435 708 Q391 750 348 708 L304 667 Z
M1196 667 C1212 667 1247 719 1239 750 C1231 781 1200 818 1152 833 C1104 849 1010 880 978 833 L978 583 L891 583 C871 563 871 520 891 500 L978 500 L978 250 L1057 250 Q1065 250 1065 275 L1065 500 L1152 500 C1168 515 1168 568 1152 583 L1065 583 L1065 750 C1081 781 1128 765 1152 750 Z" horiz-adv-x="1000" />
<glyph unicode="+" d="M696 250 L696 850 Q696 917 687 917 L609 917 L609 583 L583 633 Q565 667 496 667 L461 667 Q391 667 357 633 L348 625 Q304 583 283 500 Q261 417 304 333 Q348 250 435 250 Q522 250 565 292 L609 333 L609 250 ZM370 458 Q391 583 478 583 L496 583 Q565 583 548 483 L539 433 Q522 333 452 333 L435 333 Q348 333 370 458 
M1196 250 L1196 850 Q1196 917 1187 917 L1109 917 L1109 583 L1083 633 Q1065 667 996 667 L961 667 Q891 667 857 633 L848 625 Q804 583 783 500 Q761 417 804 333 Q848 250 935 250 Q1022 250 1065 292 L1109 333 L1109 250 ZM870 458 Q891 583 978 583 L996 583 Q1065 583 1048 483 L1039 433 Q1022 333 952 333 L935 333 Q848 333 870 458 " horiz-adv-x="1000" />
<glyph unicode="-" d="M261 250 L261 917 L339 917 Q348 917 348 892 L348 667 L348 583 L370 625 Q391 667 500 667 Q609 667 630 583 Q652 500 630 417 Q609 333 587 292 Q565 250 522 250 L478 250 L435 250 Q391 250 370 292 L348 333 L348 275 Q348 250 322 250 ZM522 500 Q522 667 435 583 Q348 500 370 458 Q391 417 457 375 Q522 333 522 500 
M761 250 L761 917 L839 917 Q848 917 848 892 L848 667 L848 583 L870 625 Q891 667 1000 667 Q1109 667 1130 583 Q1152 500 1130 417 Q1109 333 1087 292 Q1065 250 1022 250 L978 250 L935 250 Q891 250 870 292 L848 333 L848 275 Q848 250 822 250 ZM1022 500 Q1022 667 935 583 Q848 500 870 458 Q891 417 957 375 Q1022 333 1022 500 " horiz-adv-x="1000" />
<glyph unicode="*" d="M261 667 L283 750 Q304 833 435 833 L539 833 Q565 833 574 825 L643 758 Q652 750 639 733 L522 583 C516 540 587 526 609 500 L639 442 Q652 417 639 367 Q609 250 335 250 Q304 250 300 267 L261 417 L304 417 L391 333 L452 333 Q478 333 491 358 L517 408 Q522 417 509 425 L391 500 L391 575 Q391 583 400 592 L470 658 Q478 667 470 675 L435 708 Q391 750 348 708 L304 667 Z
M1109 250 L1109 417 L1239 417 L1239 500 L1109 500 L1109 833 L978 833 L717 500 L717 417 L978 417 L978 250 ZM978 750 L978 500 L804 500 Z
M1609 250 L1609 417 L1739 417 L1739 500 L1609 500 L1609 833 L1478 833 L1217 500 L1217 417 L1478 417 L1478 250 ZM1478 750 L1478 500 L1304 500 Z
M2065 625 Q2109 583 2087 625 L2065 667 L1961 667 Q1891 667 1857 633 L1848 625 Q1804 583 1783 500 Q1761 417 1804 333 Q1848 250 1935 250 Q2022 250 2065 333 Q2109 417 2065 375 L2057 367 Q2022 333 1952 333 L1935 333 Q1848 333 1870 458 Q1891 583 1957 625 L1970 633 Q2022 667 2057 633 Z" horiz-adv-x="2000" />
<glyph unicode="/" d="M261 667 L283 750 Q304 833 435 833 L539 833 Q565 833 574 825 L643 758 Q652 750 639 733 L522 583 C516 540 587 526 609 500 L639 442 Q652 417 639 367 Q609 250 335 250 Q304 250 300 267 L261 417 L304 417 L391 333 L452 333 Q478 333 491 358 L517 408 Q522 417 509 425 L391 500 L391 575 Q391 583 400 592 L470 658 Q478 667 470 675 L435 708 Q391 750 348 708 L304 667 Z
M1196 250 L1196 850 Q1196 917 1187 917 L1109 917 L1109 583 L1083 633 Q1065 667 996 667 L961 667 Q891 667 857 633 L848 625 Q804 583 783 500 Q761 417 804 333 Q848 250 935 250 Q1022 250 1065 292 L1109 333 L1109 250 ZM870 458 Q891 583 978 583 L996 583 Q1065 583 1048 483 L1039 433 Q1022 333 952 333 L935 333 Q848 333 870 458 
M1348 667 L1304 750 L1478 833 L1609 833 L1609 333 L1739 333 L1739 250 L1348 250 L1348 333 L1478 333 L1478 667 Z
M2196 667 C2212 667 2247 719 2239 750 C2231 781 2200 818 2152 833 C2104 849 2010 880 1978 833 L1978 583 L1891 583 C1871 563 1871 520 1891 500 L1978 500 L1978 250 L2057 250 Q2065 250 2065 275 L2065 500 L2152 500 C2168 515 2168 568 2152 583 L2065 583 L2065 750 C2081 781 2128 765 2152 750 Z" horiz-adv-x="2000" />
<glyph unicode="{" d="M696 250 L696 667 L609 667 L609 583 L583 633 Q565 667 496 667 L461 667 Q391 667 357 633 L348 625 Q304 583 283 500 Q261 417 304 333 Q348 250 435 250 Q522 250 565 292 L609 333 L609 250 ZM370 458 Q391 583 478 583 L496 583 Q565 583 548 483 L539 433 Q522 333 452 333 L435 333 Q348 333 370 458 
M1196 250 L1196 667 L1109 667 L1109 583 L1083 633 Q1065 667 996 667 L961 667 Q891 667 857 633 L848 625 Q804 583 783 500 Q761 417 804 333 Q848 250 935 250 Q1022 250 1065 292 L1109 333 L1109 250 ZM870 458 Q891 583 978 583 L996 583 Q1065 583 1048 483 L1039 433 Q1022 333 952 333 L935 333 Q848 333 870 458 
M1696 250 L1696 667 L1609 667 L1609 583 L1583 633 Q1565 667 1496 667 L1461 667 Q1391 667 1357 633 L1348 625 Q1304 583 1283 500 Q1261 417 1304 333 Q1348 250 1435 250 Q1522 250 1565 292 L1609 333 L1609 250 ZM1370 458 Q1391 583 1478 583 L1496 583 Q1565 583 1548 483 L1539 433 Q1522 333 1452 333 L1435 333 Q1348 333 1370 458 " horiz-adv-x="1500" />
<glyph unicode="}" d="M696 667 C712 667 747 719 739 750 C731 781 700 818 652 833 C604 849 510 880 478 833 L478 583 L391 583 C371 563 371 520 391 500 L478 500 L478 250 L557 250 Q565 250 565 275 L565 500 L652 500 C668 515 668 568 652 583 L565 583 L565 750 C581 781 628 765 652 750 Z
M1196 667 C1212 667 1247 719 1239 750 C1231 781 1200 818 1152 833 C1104 849 1010 880 978 833 L978 583 L891 583 C871 563 871 520 891 500 L978 500 L978 250 L1057 250 Q1065 250 1065 275 L1065 500 L1152 500 C1168 515 1168 568 1152 583 L1065 583 L1065 750 C1081 781 1128 765 1152 750 Z
M1696 667 C1712 667 1747 719 1739 750 C1731 781 1700 818 1652 833 C1604 849 1510 880 1478 833 L1478 583 L1391 583 C1371 563 1371 520 1391 500 L1478 500 L1478 250 L1557 250 Q1565 250 1565 275 L1565 500 L1652 500 C1668 515 1668 568 1652 583 L1565 583 L1565 750 C1581 781 1628 765 1652 750 Z" horiz-adv-x="1500" />
<glyph unicode="[" d="M261 250 L261 917 L339 917 Q348 917 348 892 L348 667 L348 583 L370 625 Q391 667 500 667 Q609 667 630 583 Q652 500 630 417 Q609 333 587 292 Q565 250 522 250 L478 250 L435 250 Q391 250 370 292 L348 333 L348 275 Q348 250 322 250 ZM522 500 Q522 667 435 583 Q348 500 370 458 Q391 417 457 375 Q522 333 522 500 
M761 250 L761 917 L839 917 Q848 917 848 892 L848 667 L848 583 L870 625 Q891 667 1000 667 Q1109 667 1130 583 Q1152 500 1130 417 Q1109 333 1087 292 Q1065 250 1022 250 L978 250 L935 250 Q891 250 870 292 L848 333 L848 275 Q848 250 822 250 ZM1022 500 Q1022 667 935 583 Q848 500 870 458 Q891 417 957 375 Q1022 333 1022 500 
M1261 250 L1261 917 L1339 917 Q1348 917 1348 892 L1348 667 L1348 583 L1370 625 Q1391 667 1500 667 Q1609 667 1630 583 Q1652 500 1630 417 Q1609 333 1587 292 Q1565 250 1522 250 L1478 250 L1435 250 Q1391 250 1370 292 L1348 333 L1348 275 Q1348 250 1322 250 ZM1522 500 Q1522 667 1435 583 Q1348 500 1370 458 Q1391 417 1457 375 Q1522 333 1522 500 " horiz-adv-x="1500" />
<glyph unicode="]" d="M696 250 L696 850 Q696 917 687 917 L609 917 L609 583 L583 633 Q565 667 496 667 L461 667 Q391 667 357 633 L348 625 Q304 583 283 500 Q261 417 304 333 Q348 250 435 250 Q522 250 565 292 L609 333 L609 250 ZM370 458 Q391 583 478 583 L496 583 Q565 583 548 483 L539 433 Q522 333 452 333 L435 333 Q348 333 370 458 
M1196 250 L1196 850 Q1196 917 1187 917 L1109 917 L1109 583 L1083 633 Q1065 667 996 667 L961 667 Q891 667 857 633 L848 625 Q804 583 783 500 Q761 417 804 333 Q848 250 935 250 Q1022 250 1065 292 L1109 333 L1109 250 ZM870 458 Q891 583 978 583 L996 583 Q1065 583 1048 483 L1039 433 Q1022 333 952 333 L935 333 Q848 333 870 458 
M1696 250 L1696 850 Q1696 917 1687 917 L1609 917 L1609 583 L1583 633 Q1565 667 1496 667 L1461 667 Q1391 667 1357 633 L1348 625 Q1304 583 1283 500 Q1261 417 1304 333 Q1348 250 1435 250 Q1522 250 1565 292 L1609 333 L1609 250 ZM1370 458 Q1391 583 1478 583 L1496 583 Q1565 583 1548 483 L1539 433 Q1522 333 1452 333 L1435 333 Q1348 333 1370 458 " horiz-adv-x="1500" />
<glyph unicode="(" d="M696 250 L696 667 L609 667 L609 583 L583 633 Q565 667 496 667 L461 667 Q391 667 357 633 L348 625 Q304 583 283 500 Q261 417 304 333 Q348 250 435 250 Q522 250 565 292 L609 333 L609 250 ZM370 458 Q391 583 478 583 L496 583 Q565 583 548 483 L539 433 Q522 333 452 333 L435 333 Q348 333 370 458 
M1196 250 L1196 667 L1109 667 L1109 583 L1083 633 Q1065 667 996 667 L961 667 Q891 667 857 633 L848 625 Q804 583 783 500 Q761 417 804 333 Q848 250 935 250 Q1022 250 1065 292 L1109 333 L1109 250 ZM870 458 Q891 583 978 583 L996 583 Q1065 583 1048 483 L1039 433 Q1022 333 952 333 L935 333 Q848 333 870 458 
M1696 250 L1696 667 L1609 667 L1609 583 L1583 633 Q1565 667 1496 667 L1461 667 Q1391 667 1357 633 L1348 625 Q1304 583 1283 500 Q1261 417 1304 333 Q1348 250 1435 250 Q1522 250 1565 292 L1609 333 L1609 250 ZM1370 458 Q1391 583 1478 583 L1496 583 Q1565 583 1548 483 L1539 433 Q1522 333 1452 333 L1435 333 Q1348 333 1370 458 " horiz-adv-x="1500" />
<glyph unicode=")" d="M696 667 C712 667 747 719 739 750 C731 781 700 818 652 833 C604 849 510 880 478 833 L478 583 L391 583 C371 563 371 520 391 500 L478 500 L478 250 L557 250 Q565 250 565 275 L565 500 L652 500 C668 515 668 568 652 583 L565 583 L565 750 C581 781 628 765 652 750 Z
M1196 667 C1212 667 1247 719 1239 750 C1231 781 1200 818 1152 833 C1104 849 1010 880 978 833 L978 583 L891 583 C871 563 871 520 891 500 L978 500 L978 250 L1057 250 Q1065 250 1065 275 L1065 500 L1152 500 C1168 515 1168 568 1152 583 L1065 583 L1065 750 C1081 781 1128 765 1152 750 Z
M1696 667 C1712 667 1747 719 1739 750 C1731 781 1700 818 1652 833 C1604 849 1510 880 1478 833 L1478 583 L1391 583 C1371 563 1371 520 1391 500 L1478 500 L1478 250 L1557 250 Q1565 250 1565 275 L1565 500 L1652 500 C1668 515 1668 568 1652 583 L1565 583 L1565 750 C1581 781 1628 765 1652 750 Z" horiz-adv-x="1500" />
<glyph unicode="&#x27;" d="M648 825 Q652 833 626 833 L522 833 Q391 833 326 750 Q261 667 239 583 L235 567 Q217 500 235 400 L239 375 Q261 250 435 250 Q609 250 609 425 Q609 500 543 542 Q478 583 413 583 L348 583 L391 667 Q435 750 522 750 L591 750 Q609 750 613 758 ZM522 417 Q522 333 435 333 Q348 333 326 417 Q304 500 413 500 Q522 500 522 417 
M1148 825 Q1152 833 1126 833 L1022 833 Q891 833 826 750 Q761 667 739 583 L735 567 Q717 500 735 400 L739 375 Q761 250 935 250 Q1109 250 1109 425 Q1109 500 1043 542 Q978 583 913 583 L848 583 L891 667 Q935 750 1022 750 L1091 750 Q1109 750 1113 758 ZM1022 417 Q1022 333 935 333 Q848 333 826 417 Q804 500 913 500 Q1022 500 1022 417 
M1261 500 Q1261 833 1478 833 Q1696 833 1696 500 Q1696 167 1478 167 Q1261 167 1261 500 M1565 500 Q1565 750 1478 750 Q1391 750 1391 500 Q1391 250 1478 250 Q1565 250 1565 500 " horiz-adv-x="1500" />
<glyph unicode="&#x22;" d="M261 500 Q261 833 478 833 Q696 833 696 500 Q696 167 478 167 Q261 167 261 500 M565 500 Q565 750 478 750 Q391 750 391 500 Q391 250 478 250 Q565 250 565 500 
M1152 750 Q1152 833 978 833 Q804 833 804 708 L804 608 Q804 583 809 575 L843 508 Q848 500 861 500 L965 500 Q978 500 987 508 L1065 583 L1065 433 Q1065 417 1057 400 Q978 250 804 250 Q804 250 804 208 L804 192 Q804 167 883 167 L1039 167 Q1065 167 1074 192 L1143 392 Q1152 417 1152 442 L1152 642 Q1152 667 1152 683 ZM978 750 Q1065 750 1043 667 Q1022 583 957 583 Q891 583 891 667 Q891 750 978 750 
M1652 750 Q1652 833 1478 833 Q1304 833 1304 708 L1304 608 Q1304 583 1309 575 L1343 508 Q1348 500 1361 500 L1465 500 Q1478 500 1487 508 L1565 583 L1565 433 Q1565 417 1557 400 Q1478 250 1304 250 Q1304 250 1304 208 L1304 192 Q1304 167 1383 167 L1539 167 Q1565 167 1574 192 L1643 392 Q1652 417 1652 442 L1652 642 Q1652 667 1652 683 ZM1478 750 Q1565 750 1543 667 Q1522 583 1457 583 Q1391 583 1391 667 Q1391 750 1478 750 " horiz-adv-x="1500" />
<glyph unicode="&#x26;" d="M500 583 Q522 583 543 542 Q565 500 435 500 L304 500 C288 485 324 432 348 417 L435 417 Q522 417 565 458 Q609 500 587 583 Q565 667 478 667 L461 667 Q391 667 357 633 L348 625 Q304 583 283 500 Q261 417 304 333 Q348 250 435 250 Q522 250 565 333 L609 417 L557 367 Q522 333 452 333 L435 333 Q348 333 370 458 Q391 583 435 583 L478 583 Z
M867 250 Q875 250 879 258 L917 333 C1013 497 1074 592 1167 750 L1196 808 Q1208 833 1183 833 L1125 833 L833 833 L775 833 Q750 833 750 808 L750 775 Q750 750 775 750 L833 750 L1042 750 L917 542 Q792 333 792 292 L792 258 Q792 250 800 250 Z" horiz-adv-x="1000" />
<glyph unicode="$" d="M261 667 L283 750 Q304 833 435 833 L539 833 Q565 833 574 825 L643 758 Q652 750 639 733 L522 583 C516 540 587 526 609 500 L639 442 Q652 417 639 367 Q609 250 335 250 Q304 250 300 267 L261 417 L304 417 L391 333 L452 333 Q478 333 491 358 L517 408 Q522 417 509 425 L391 500 L391 575 Q391 583 400 592 L470 658 Q478 667 470 675 L435 708 Q391 750 348 708 L304 667 Z
M1065 625 Q1109 583 1087 625 L1065 667 L961 667 Q891 667 857 633 L848 625 Q804 583 783 500 Q761 417 804 333 Q848 250 935 250 Q1022 250 1065 333 Q1109 417 1065 375 L1057 367 Q1022 333 952 333 L935 333 Q848 333 870 458 Q891 583 957 625 L970 633 Q1022 667 1057 633 Z
M1696 825 Q1696 833 1652 833 L1261 833 L1261 500 L1478 500 L1565 458 Q1652 417 1565 375 L1478 333 L1261 333 L1261 250 L1535 250 Q1565 250 1578 258 L1683 325 Q1696 333 1696 350 L1696 483 Q1696 500 1683 508 L1578 575 Q1565 583 1543 583 L1348 583 L1348 750 L1661 750 Q1696 750 1696 758 Z
M2196 250 L2196 850 Q2196 917 2187 917 L2109 917 L2109 583 L2083 633 Q2065 667 1996 667 L1961 667 Q1891 667 1857 633 L1848 625 Q1804 583 1783 500 Q1761 417 1804 333 Q1848 250 1935 250 Q2022 250 2065 292 L2109 333 L2109 250 ZM1870 458 Q1891 583 1978 583 L1996 583 Q2065 583 2048 483 L2039 433 Q2022 333 1952 333 L1935 333 Q1848 333 1870 458 " horiz-adv-x="2000" />
<glyph unicode="€" d="M261 667 L283 750 Q304 833 435 833 L539 833 Q565 833 574 825 L643 758 Q652 750 639 733 L522 583 C516 540 587 526 609 500 L639 442 Q652 417 639 367 Q609 250 335 250 Q304 250 300 267 L261 417 L304 417 L391 333 L452 333 Q478 333 491 358 L517 408 Q522 417 509 425 L391 500 L391 575 Q391 583 400 592 L470 658 Q478 667 470 675 L435 708 Q391 750 348 708 L304 667 Z
M1000 583 Q1022 583 1043 542 Q1065 500 935 500 L804 500 C788 485 824 432 848 417 L935 417 Q1022 417 1065 458 Q1109 500 1087 583 Q1065 667 978 667 L961 667 Q891 667 857 633 L848 625 Q804 583 783 500 Q761 417 804 333 Q848 250 935 250 Q1022 250 1065 333 L1109 417 L1057 367 Q1022 333 952 333 L935 333 Q848 333 870 458 Q891 583 935 583 L978 583 Z
M1565 625 Q1609 583 1587 625 L1565 667 L1461 667 Q1391 667 1357 633 L1348 625 Q1304 583 1283 500 Q1261 417 1304 333 Q1348 250 1435 250 Q1522 250 1565 333 Q1609 417 1565 375 L1557 367 Q1522 333 1452 333 L1435 333 Q1348 333 1370 458 Q1391 583 1457 625 L1470 633 Q1522 667 1557 633 Z
M1848 667 L1761 667 L1783 750 Q1804 833 1935 875 Q2065 917 2152 833 Q2239 750 2065 542 L1891 333 L2196 333 L2196 250 L1761 250 L1761 325 Q1761 333 1796 375 L1935 542 Q2109 750 2043 792 Q1978 833 1913 750 Z" horiz-adv-x="2000" />
<glyph unicode="&#xe4;" d="M696 250 L696 667 L609 667 L609 583 L583 633 Q565 667 496 667 L461 667 Q391 667 357 633 L348 625 Q304 583 283 500 Q261 417 304 333 Q348 250 435 250 Q522 250 565 292 L609 333 L609 250 ZM370 458 Q391 583 478 583 L496 583 Q565 583 548 483 L539 433 Q522 333 452 333 L435 333 Q348 333 370 458 
M1000 583 Q1022 583 1043 542 Q1065 500 935 500 L804 500 C788 485 824 432 848 417 L935 417 Q1022 417 1065 458 Q1109 500 1087 583 Q1065 667 978 667 L961 667 Q891 667 857 633 L848 625 Q804 583 783 500 Q761 417 804 333 Q848 250 935 250 Q1022 250 1065 333 L1109 417 L1057 367 Q1022 333 952 333 L935 333 Q848 333 870 458 Q891 583 935 583 L978 583 Z" horiz-adv-x="1000" />
<glyph unicode="&#xf6;" d="M261 500 Q261 833 478 833 Q696 833 696 500 Q696 167 478 167 Q261 167 261 500 M565 500 Q565 750 478 750 Q391 750 391 500 Q391 250 478 250 Q565 250 565 500 
M1000 583 Q1022 583 1043 542 Q1065 500 935 500 L804 500 C788 485 824 432 848 417 L935 417 Q1022 417 1065 458 Q1109 500 1087 583 Q1065 667 978 667 L961 667 Q891 667 857 633 L848 625 Q804 583 783 500 Q761 417 804 333 Q848 250 935 250 Q1022 250 1065 333 L1109 417 L1057 367 Q1022 333 952 333 L935 333 Q848 333 870 458 Q891 583 935 583 L978 583 Z" horiz-adv-x="1000" />
<glyph unicode="&#xfc;" d="M565 625 Q609 583 587 625 L565 667 L461 667 Q391 667 357 633 L348 625 Q304 583 283 500 Q261 417 304 333 Q348 250 435 250 Q522 250 565 333 Q609 417 565 375 L557 367 Q522 333 452 333 L435 333 Q348 333 370 458 Q391 583 457 625 L470 633 Q522 667 557 633 Z
M1000 583 Q1022 583 1043 542 Q1065 500 935 500 L804 500 C788 485 824 432 848 417 L935 417 Q1022 417 1065 458 Q1109 500 1087 583 Q1065 667 978 667 L961 667 Q891 667 857 633 L848 625 Q804 583 783 500 Q761 417 804 333 Q848 250 935 250 Q1022 250 1065 333 L1109 417 L1057 367 Q1022 333 952 333 L935 333 Q848 333 870 458 Q891 583 935 583 L978 583 Z" horiz-adv-x="1000" />

    </font>
</defs>
</svg>
